#!OML:ASF E:/inclinewalkrobotboard/Project1/Captureday1/Session1/subject1.ASF
:FULLY-SPECIFIED
:DEGREES
226
root 0 0 0 -2.169456654640983 -4.802727991023364 -5.901156505228792
lowerback 10.477125517905556 1.9355449644912164 4.804032619700774
upperback 0.506833005127445 3.219270626324079 1.6721077324575142
thorax -5.218018202398712 1.4974096983647092 -1.3902687129552183
lowerneck -16.927290004023867 -3.2159794203976175 -1.6422549816443341
upperneck 19.171247896539573 -4.151830420006789 0.657828583820657
head 8.865949263916903 -1.9878182665678668 -0.031156861467649843
rclavicle -4.788520398876204E-16 -3.178337279861806E-16
rhumerus -29.028793304235716 -17.946519076701648 -78.06047852080931
rradius 26.725825418196976
rwrist 4.392763687009631
rhand -17.68486390432004 22.450393483445684
rfingers 7.125020000000023
rthumb 8.564972432175152 -7.366011932708119
lclavicle -6.602491052235062E-16 -2.0026945157362309E-16
lhumerus -30.225097937429567 -1.6189044175178147 82.28896571431333
lradius 32.518614637591874
lwrist 5.688966101177597
lhand -25.55998547957725 23.912159069499445
lfingers 7.123832319186891
lthumb 0.9585982753690683 53.52234345205907
rfemur -4.213639710241257 7.06706256933911 30.393799965982787
rtibia 30.001867617997043
rfoot -12.823108072287228 -5.800024448359371
rtoes 3.0148654584067316
lfemur -16.6193095103335 -1.614625789511533 -15.679357017751153
ltibia 36.728098809600795
lfoot -5.238053503910859 -1.1233043017347857
ltoes -3.3947990723575745
227
root 0 0 0 -2.177879897399211 -4.803627862811041 -5.839968542972716
lowerback 10.47433782272485 1.9140298150055814 4.73692125770981
upperback 0.5142739637733382 3.1829338325745105 1.6647543823218536
thorax -5.209210801147944 1.4807617110071423 -1.3558079676130612
lowerneck -16.892339726650377 -3.210600652519994 -1.660023751209594
upperneck 19.151944395727924 -4.1441422748321735 0.6745169822199371
head 8.854385888880152 -1.985176737326522 -0.021382295725650202
rclavicle -4.663713327956717E-16 -3.2384189442846683E-16
rhumerus -29.18752167212608 -18.094473994100646 -78.09217598398867
rradius 26.582268525209493
rwrist 4.36034267331501
rhand -17.659103368670266 22.564894534112533
rfingers 7.125020000000025
rthumb 8.588807407291993 -7.253821515868115
lclavicle -6.565945742099902E-16 -1.981168626917807E-16
lhumerus -30.25971649825934 -1.571020605412528 82.28841226502016
lradius 32.43503458073408
lwrist 5.681862659211166
lhand -25.58685080681958 23.89895812020834
lfingers 7.123883909734867
lthumb 0.9337096810572927 53.51673383233966
rfemur -5.5939604807462295 6.407788153874845 29.717625969042395
rtibia 33.462480774903995
rfoot -11.175830158371465 -5.579557152572585
rtoes 3.8809451986282655
lfemur -14.129405521616368 -1.994056977253846 -17.079825685355637
ltibia 33.38623700014988
lfoot -7.03049243277566 -0.4567871535559149
ltoes -3.2134324653178887
228
root 0 0 0 -2.1875026842293135 -4.8058498393289355 -5.770381417630376
lowerback 10.471061851420625 1.8899251905693837 4.6603850118215675
upperback 0.5228047523346149 3.1420017036238534 1.6561220995679395
thorax -5.199018555501772 1.4620157786380281 -1.3169079559646748
lowerneck -16.851924971712926 -3.2047056630266115 -1.6805881791075077
upperneck 19.12945474349005 -4.1358556970882265 0.6942661614488772
head 8.840917721979295 -1.9823759077362966 -0.00996235277585722
rclavicle -4.5549838206423945E-16 -3.27773095402752E-16
rhumerus -29.3105949983897 -18.210342122484363 -78.11594674988915
rradius 26.471426578916947
rwrist 4.335078706828981
rhand -17.639792458042038 22.653606659781598
rfingers 7.125020000000027
rthumb 8.607039555123835 -7.166920374745846
lclavicle -6.530918579235157E-16 -1.9443097731182237E-16
lhumerus -30.277450646868665 -1.54048987838895 82.28654281087493
lradius 32.38676479387988
lwrist 5.678567530939942
lhand -25.60399520958721 23.89239423802283
lfingers 7.123930646905053
lthumb 0.9179994625179226 53.51448939546263
rfemur -7.462746922114832 5.577381226646921 28.796646817550844
rtibia 37.77688553985123
rfoot -9.085404544848362 -5.336099542651756
rtoes 4.9073846202258755
lfemur -10.873510318860149 -2.480722609950517 -18.897330150253104
ltibia 29.07385335911208
lfoot -9.398647019982496 0.43449918073748783
ltoes -3.004904678134357
229
root 0 0 0 -2.200718400868462 -4.808047336174086 -5.672860979817959
lowerback 10.466633676318596 1.8562139119192484 4.5532666535184125
upperback 0.5344680739726031 3.0847241717551745 1.6442455108949727
thorax -5.185099410451173 1.4357896621541975 -1.2622749243906628
lowerneck -16.796846748665452 -3.1965765557424834 -1.7088202319654284
upperneck 19.098822151097252 -4.124361512408366 0.7212906334008355
head 8.822549769013806 -1.9785146852014046 0.005745371426292056
rclavicle -4.471122787396928E-16 -3.2912763701912747E-16
rhumerus -29.388962471667107 -18.285415111468566 -78.1299239144215
rradius 26.401671200191537
rwrist 4.318958434995397
rhand -17.62837601186281 22.709816159450433
rfingers 7.125020000000028
rthumb 8.618333348730381 -7.111812928105891
lclavicle -6.497204643657266E-16 -1.8994677352229328E-16
lhumerus -30.27696678875247 -1.5311193615803802 82.28365840202521
lradius 32.37752482179315
lwrist 5.6782604792020885
lhand -25.60916166933363 23.89215601070048
lfingers 7.123963480142566
lthumb 0.9133453977833703 53.515978948040335
rfemur -10.037645967005654 4.558517585756838 27.49480400702155
rtibia 43.07392725093934
rfoot -6.482800008681872 -5.1101161623129565
rtoes 6.040672833698678
lfemur -6.974327777068698 -3.0309937850369675 -21.050024251339785
ltibia 24.10258616973829
lfoot -12.227522199267106 1.482258788408811
ltoes -2.8211095891380866
230
root 0 0 0 -2.217304359598317 -4.779284174076205 -5.542892071070492
lowerback 10.462498173273238 1.8073543039484905 4.4101679896410335
upperback 0.5452666512735922 3.0033731124699057 1.6334306449022478
thorax -5.17247135755359 1.3986054591666768 -1.1832828130053545
lowerneck -16.747902832117923 -3.185126410590552 -1.7371824526763247
upperneck 19.074800578712452 -4.106729179327878 0.7427230177522048
head 8.806817250267823 -1.9723419821695 0.020205753400757587
rclavicle -4.3937896190563003E-16 -3.289068024837338E-16
rhumerus -29.455869407242577 -18.351873533169865 -78.14037336572765
rradius 26.34139933253015
rwrist 4.30604338827789
rhand -17.6192667244796 22.757757912118063
rfingers 7.125020000000028
rthumb 8.62777402178551 -7.064706039070845
lclavicle -6.460934625618244E-16 -1.8661931429513877E-16
lhumerus -30.27389830534201 -1.529228827617704 82.28182187941164
lradius 32.37643526737392
lwrist 5.676925595357892
lhand -25.610424947254614 23.89173186119259
lfingers 7.123977281114567
lthumb 0.9117997278363479 53.51813635506002
rfemur -13.270273044014916 3.4142424936378015 25.824919733567135
rtibia 49.06568347148219
rfoot -3.520005245040341 -4.946510448285919
rtoes 7.179464075835621
lfemur -3.401526462255669 -3.449462082868202 -22.97980085058269
ltibia 20.104135178965294
lfoot -14.621917378577251 2.2378199588524765
ltoes -2.7728325475588282
231
root 0 0 0 -2.23383556690444 -4.667785710565928 -5.395536109463257
lowerback 10.461901448154329 1.7417594759903596 4.246594610475109
upperback 0.5460717318746995 2.8980480995793583 1.633425451100293
thorax -5.172258640093524 1.3505910112814017 -1.0780729333585573
lowerneck -16.750757434317478 -3.1705140370160807 -1.747383749103065
upperneck 19.088454847430725 -4.081128573051635 0.7319768070230461
head 8.810103542290527 -1.9627399083100008 0.02101478681506297
rclavicle -4.277705521706659E-16 -3.3056970645785885E-16
rhumerus -29.58531589355677 -18.479502309213075 -78.16251443750306
rradius 26.221408499865866
rwrist 4.28205813474349
rhand -17.599613225058583 22.851639498121493
rfingers 7.125020000000029
rthumb 8.646730366217572 -6.972463457761325
lclavicle -6.42314543054471E-16 -1.8680426138984987E-16
lhumerus -30.294930056840233 -1.5076087936658986 82.28362723363803
lradius 32.329416454455696
lwrist 5.67014522764997
lhand -25.62366318364588 23.881900160191698
lfingers 7.123978757516961
lthumb 0.8981926868821102 53.51536493071943
rfemur -16.352714551743777 2.4573680366224817 24.190670752534146
rtibia 54.18299861690316
rfoot -1.0028839692890354 -4.913800333593325
rtoes 8.00676771820094
lfemur -0.9445574718693148 -3.6081929971204603 -24.244620421873996
ltibia 18.25884124861874
lfoot -15.82471292533683 2.332392225698368
ltoes -2.8949660489211255
232
root 0 0 0 -2.249133913371379 -4.454681866570718 -5.230757786054523
lowerback 10.465419257429366 1.656365646192244 4.062277575237579
upperback 0.5344543176414449 2.764699766310896 1.6472675427737382
thorax -5.18704676956393 1.2898640599745967 -0.942337209337723
lowerneck -16.81697632364763 -3.152375239930615 -1.7352634893176413
upperneck 19.149028164669847 -4.046739533230428 0.6821527414986228
head 8.837148985246259 -1.9490789182270072 0.005033358287405143
rclavicle -4.1183713567429673E-16 -3.3582528206622377E-16
rhumerus -29.799894013355267 -18.686581363852632 -78.20246205420213
rradius 26.021423613939373
rwrist 4.241632647093993
rhand -17.564884739863974 23.007854304186402
rfingers 7.125020000000031
rthumb 8.6789050206376 -6.819198503139379
lclavicle -6.395928221738931E-16 -1.8917730913391133E-16
lhumerus -30.337911914822783 -1.4653259848771043 82.2880322251133
lradius 32.239263954735115
lwrist 5.6605341769530515
lhand -25.648914817995802 23.865474009792212
lfingers 7.123983820577799
lthumb 0.8727843968748772 53.50828029198112
rfemur -18.397182929534974 1.9734489002925555 23.055317823003143
rtibia 56.88910661090151
rfoot 0.31493212244864566 -5.032297094845263
rtoes 8.25469488225512
lfemur 0.6099855575954045 -3.5927130953328064 -24.98565858303983
ltibia 17.93989443378859
lfoot -16.124242197403994 1.9624557954240407
ltoes -3.108478152409003
233
root 0 0 0 -2.2658401229376253 -4.1641864461390625 -5.029338196960261
lowerback 10.470504054412695 1.5470699432166426 3.8367716864695876
upperback 0.5165307128714143 2.5952523446251945 1.669064198509754
thorax -5.209244761246014 1.2126424954945911 -0.7696599006518144
lowerneck -16.91625425599903 -3.1293464106902893 -1.7137350410261076
upperneck 19.23695453444038 -4.003055129281854 0.6101429425458784
head 8.877700655762762 -1.9312203311036273 -0.019530629253416976
rclavicle -3.9522910462314525E-16 -3.4309697899420633E-16
rhumerus -30.045557889336724 -18.91941907844732 -78.24992355779406
rradius 25.793179353879225
rwrist 4.19448291551227
rhand -17.524327881970716 23.186079016707744
rfingers 7.125020000000034
rthumb 8.716112730245394 -6.644509695194227
lclavicle -6.381818783241795E-16 -1.9143855784199879E-16
lhumerus -30.383595578388217 -1.4192945242545782 82.2926217527154
lradius 32.143683259676024
lwrist 5.652330914754351
lhand -25.675735576684446 23.849929949992777
lfingers 7.123999874844127
lthumb 0.8461562601085504 53.50097034624099
rfemur -19.470008562348188 1.8576256005733685 22.41957608736727
rtibia 57.61159381946277
rfoot 0.6779870282704401 -5.224286075468793
rtoes 8.089023269440688
lfemur 1.7074910851972174 -3.5283783265436 -25.476629182164217
ltibia 18.119313466705062
lfoot -16.113836055273346 1.496518718875655
ltoes -3.331576144313666
